<svg width="515" height="514" viewBox="0 0 515 514" fill="none" xmlns="http://www.w3.org/2000/svg">
<g clip-path="url(#clip0_4576_12605)">
<g opacity="0.9">
<path d="M256.624 186.377L318.348 292.561L195.574 292.898L256.624 186.377ZM154.898 129.109C149.295 93.7175 147.742 58.7224 150.116 23.1248C142.524 26.6211 135.018 30.5263 127.596 34.8404C125.199 36.2342 122.801 37.628 120.355 39.2024C121.97 71.4122 126.543 102.666 134.387 133.241C143.77 170.406 156.47 201.977 168.753 232.568C174.578 247.055 179.274 259.601 184.424 273.716C177.824 262.888 171.84 253.382 164.746 242.23C145.522 212.313 125.634 181.254 108.525 142.623C97.9615 118.67 89.4057 93.7026 82.9051 67.5409C74.8515 74.9721 67.2917 82.7273 60.3585 91.0348C69.533 115.489 79.4273 135.401 88.2625 151.651C113.348 196.645 140.513 230.5 166.9 263.28C171.711 269.191 178.741 278.394 178.741 278.394C140.573 247.421 98.7486 213.839 59.4427 161.988C51.6638 151.235 43.5824 139.434 35.4559 125.98C30.4238 134.405 25.9996 143.087 22.1172 151.912C28.7013 160.611 35.2962 168.54 41.5592 175.898C88.0527 227.236 132.155 256.592 174.986 284.548C125.506 265.651 75.936 243.445 20.1887 201.152C16.2009 197.971 12.2608 194.609 8.14027 191.2C6.00758 199.619 4.05543 208.086 2.64492 216.697C4.12643 217.669 5.60794 218.64 6.97528 219.679C74.2062 262.017 131.721 279.758 183.976 292.918C181.733 293 160.247 293.88 152.3 293.611C111.53 291.8 58.2019 284.152 -0.639779 257.559C-0.622153 270.992 0.393823 284.302 2.54089 297.719C64.0648 317.101 113.05 317.802 154.178 314.975C182.092 312.802 208.535 308.888 234.046 305.21C254.157 302.227 275.446 299.169 296.496 297.015C276.707 301.339 256.907 306.433 236.993 311.593C211.553 318.285 185.248 325.327 157.292 330.579C118.029 337.669 70.985 342.407 10.4933 331.897C14.2388 344.384 19.0969 356.683 24.8869 368.746C82.3019 370.81 126.33 361.409 163.174 350.685C192.039 342.002 218.682 331.861 244.392 321.956C263.635 314.59 279.433 308.919 298.551 302.389C279.961 311.668 264.957 320.543 246.46 331.295C191.998 362.954 135.918 395.247 47.8434 407.186C55.1098 417.321 63.1091 426.878 71.5944 435.694C155.884 412.512 209.017 373.836 257.391 338.536C274.255 326.289 285.303 318.492 302.374 307.652C288.951 320.037 281.399 328.857 268.231 342.469C246.657 364.482 224.253 387.434 196.88 409.456C169.002 431.925 139.475 450.769 107.453 466.634C116.626 473.217 126.351 479.173 136.268 484.407C163.511 466.89 188.134 447.231 210.773 425.21C238.211 398.568 259.242 371.678 279.624 345.776C289.264 333.451 298.215 323.36 307.843 311.805C301.685 323.023 296.252 332.597 290.131 344.404C273.837 376.025 256.961 408.749 232.003 442.81C216.646 463.958 199.134 483.761 179.779 502.497C190.108 505.812 200.741 508.337 211.519 510.322C228.062 490.165 240.391 471.694 249.988 455.88C276.378 411.669 292.115 371.205 307.337 331.958C310.086 324.861 314.561 314.163 314.561 314.163C306.844 362.643 298.588 415.714 273.429 475.708C268.096 487.821 261.803 500.644 254.205 514.379C263.92 514.536 273.599 514.104 283.354 513.016C287.571 502.927 291.169 493.35 294.377 484.153C315.496 418.259 319.084 365.305 321.785 314.241C330.167 366.5 335.579 420.485 326.823 490.039C326.074 495.057 325.21 500.142 324.185 505.473C331.689 503.403 339.174 501.038 346.574 498.264C347.373 497.799 348.191 497.629 349.057 497.279C349.126 495.558 349.309 493.771 349.492 491.984C352.427 412.678 339.131 353.804 324.447 302.001C325.575 303.942 337.193 322.088 340.832 329.138C359.676 365.233 379.639 415.343 386.111 479.558L386.453 479.359C398.099 472.589 409.1 464.972 419.294 456.755C405.33 393.84 381.391 351.083 358.466 316.901C342.635 293.872 326.05 272.961 309.977 252.669C297.377 236.775 284.065 219.919 271.619 202.713C285.228 217.715 299.522 232.32 314.111 246.905C332.63 265.623 351.775 284.893 370.412 306.443C396.176 336.836 423.8 375.16 445.016 432.943C454.052 423.26 462.395 412.911 469.703 402.095C442.773 351.299 412.565 317.991 384.913 291.445C362.957 270.755 340.758 252.802 319.367 235.449C303.397 222.429 290.361 211.829 275.257 198.459C292.607 209.912 307.871 218.301 326.411 228.91C381.063 260.382 437.063 292.599 491.561 362.962C496.588 351.638 500.826 340.009 504.342 328.188C442.065 266.778 382.092 240.078 327.315 216.011C308.201 207.569 296.004 201.827 278.146 192.655C295.648 198.062 307.081 200.124 325.364 204.771C355.317 212.412 386.286 220.226 419.044 232.957C452.525 245.88 483.539 261.916 513.14 281.83C514.269 270.633 514.562 259.311 514.151 248.093C485.407 233.334 456.031 221.691 425.729 213.185C388.974 202.777 355.177 197.982 322.511 193.293C307.047 191.131 293.828 188.886 278.983 186.211C291.807 185.936 302.845 185.477 316.126 184.937C351.644 183.232 388.522 181.501 430.475 186.137C456.509 188.876 482.463 194.106 508.318 201.532C505.996 190.967 502.97 180.505 499.24 170.147C473.408 165.916 451.299 164.409 432.867 163.972C381.391 163.19 338.374 169.865 296.879 176.266C289.32 177.453 277.815 178.947 277.815 178.947C323.7 161.439 373.714 141.837 438.246 133.807C451.357 132.449 465.732 131.425 481.275 131.097C480.678 130.069 480.081 129.041 479.483 128.014C475.169 120.592 470.512 113.37 465.532 106.641C454.731 108.032 444.537 109.68 435.066 111.519C367.34 126.142 319.877 149.607 274.231 172.781C315.33 139.419 359.307 107.592 423.877 80.4454C428.614 78.6084 433.531 76.8191 438.563 74.9635C432.82 69.289 426.916 63.8615 420.735 58.7472C420.175 58.3091 419.614 57.8709 419.121 57.5469C417.57 58.2956 415.905 59.1106 414.354 59.8592C344.075 96.8937 299.904 137.846 262.399 176.604C263.515 174.581 273.383 155.554 277.69 148.773C299.549 114.375 332.867 72.0937 385.351 34.4048C373.688 27.7422 361.424 21.8867 348.873 17.1145C301.38 60.7619 276.334 102.818 258.178 139.646C246.095 164.848 236.237 189.673 226.685 213.71C219.175 232.587 211.263 252.615 202.593 271.861C208.659 252.601 214.164 232.903 219.537 212.976C226.458 187.567 233.504 161.321 242.937 134.452C256.436 96.9697 275.676 53.8593 315.132 6.63483C302.284 3.71589 289.197 1.69967 276.051 0.634013C245.567 49.3646 231.813 92.1887 222.554 129.344C215.646 158.718 211.202 186.812 206.883 214.069C203.61 234.455 200.866 251.021 196.9 270.74C198.139 250.009 197.747 232.517 197.704 211.156C197.581 148.138 197.594 83.5145 231.285 1.14594C219.058 2.44875 206.821 4.52156 194.753 7.41216C172.626 92.0703 179.581 157.38 186.05 216.861C188.3 237.55 189.335 251.155 190.302 271.215C186.223 253.423 182.389 242.361 177.341 224.215C169.077 194.495 160.331 163.682 154.946 128.928" fill="#CAB5AE"/>
<mask id="mask0_4576_12605" style="mask-type:alpha" maskUnits="userSpaceOnUse" x="-1" y="0" width="516" height="515">
<path d="M256.624 186.377L318.348 292.561L195.574 292.898L256.624 186.377ZM154.898 129.109C149.295 93.7175 147.742 58.7224 150.116 23.1249C142.524 26.6212 135.018 30.5264 127.596 34.8405C125.199 36.2342 122.801 37.628 120.355 39.2024C121.97 71.4122 126.543 102.666 134.387 133.241C143.77 170.406 156.47 201.977 168.753 232.568C174.578 247.055 179.274 259.601 184.424 273.716C177.824 262.888 171.84 253.382 164.746 242.23C145.522 212.313 125.634 181.254 108.525 142.623C97.9615 118.67 89.4057 93.7026 82.9051 67.5409C74.8515 74.9721 67.2917 82.7273 60.3585 91.0348C69.533 115.489 79.4273 135.401 88.2625 151.651C113.348 196.645 140.513 230.5 166.9 263.28C171.711 269.191 178.741 278.394 178.741 278.394C140.573 247.421 98.7486 213.839 59.4427 161.988C51.6638 151.235 43.5824 139.434 35.4559 125.98C30.4238 134.405 25.9996 143.087 22.1172 151.912C28.7013 160.611 35.2962 168.54 41.5592 175.898C88.0527 227.236 132.155 256.592 174.986 284.548C125.506 265.651 75.936 243.445 20.1887 201.152C16.2009 197.971 12.2608 194.609 8.14027 191.2C6.00758 199.619 4.05543 208.086 2.64492 216.697C4.12643 217.669 5.60794 218.64 6.97527 219.679C74.2062 262.017 131.721 279.758 183.976 292.918C181.733 293 160.247 293.88 152.3 293.611C111.53 291.8 58.2019 284.152 -0.639782 257.559C-0.622156 270.992 0.39382 284.302 2.54088 297.719C64.0648 317.1 113.05 317.802 154.178 314.975C182.092 312.802 208.535 308.888 234.046 305.21C254.157 302.227 275.446 299.169 296.496 297.015C276.707 301.339 256.907 306.433 236.993 311.593C211.553 318.285 185.248 325.327 157.292 330.579C118.029 337.669 70.985 342.407 10.4933 331.897C14.2388 344.384 19.0969 356.683 24.8869 368.746C82.3019 370.81 126.33 361.409 163.174 350.685C192.039 342.002 218.682 331.861 244.392 321.956C263.635 314.59 279.433 308.919 298.551 302.389C279.961 311.668 264.957 320.543 246.46 331.295C191.998 362.954 135.918 395.247 47.8434 407.186C55.1098 417.321 63.1091 426.878 71.5944 435.694C155.884 412.512 209.017 373.836 257.391 338.536C274.255 326.289 285.303 318.492 302.374 307.652C288.951 320.037 281.399 328.857 268.231 342.469C246.657 364.482 224.253 387.434 196.88 409.456C169.002 431.925 139.475 450.769 107.453 466.634C116.626 473.217 126.351 479.173 136.268 484.407C163.511 466.89 188.134 447.231 210.773 425.21C238.211 398.568 259.242 371.678 279.624 345.776C289.264 333.451 298.215 323.36 307.843 311.805C301.685 323.023 296.252 332.597 290.131 344.404C273.837 376.025 256.961 408.749 232.003 442.81C216.646 463.958 199.134 483.761 179.779 502.497C190.108 505.812 200.741 508.337 211.519 510.322C228.062 490.165 240.391 471.694 249.988 455.88C276.378 411.669 292.115 371.205 307.337 331.958C310.086 324.861 314.561 314.163 314.561 314.163C306.844 362.643 298.588 415.714 273.429 475.708C268.096 487.821 261.803 500.644 254.205 514.379C263.92 514.536 273.599 514.104 283.354 513.016C287.571 502.927 291.169 493.35 294.377 484.153C315.496 418.259 319.084 365.305 321.785 314.241C330.167 366.5 335.579 420.485 326.823 490.039C326.074 495.057 325.21 500.142 324.185 505.473C331.689 503.403 339.174 501.038 346.574 498.264C347.373 497.799 348.191 497.629 349.057 497.279C349.126 495.558 349.309 493.771 349.492 491.984C352.427 412.678 339.131 353.804 324.447 302.001C325.575 303.942 337.193 322.088 340.832 329.138C359.676 365.233 379.639 415.343 386.111 479.558L386.453 479.359C398.099 472.589 409.1 464.972 419.294 456.755C405.33 393.84 381.391 351.083 358.466 316.901C342.635 293.872 326.05 272.961 309.977 252.669C297.377 236.775 284.065 219.919 271.619 202.713C285.228 217.715 299.522 232.32 314.111 246.905C332.63 265.623 351.775 284.893 370.412 306.443C396.176 336.836 423.8 375.16 445.016 432.943C454.052 423.26 462.396 412.911 469.703 402.095C442.773 351.299 412.565 317.991 384.913 291.445C362.957 270.755 340.758 252.802 319.367 235.449C303.397 222.429 290.361 211.829 275.257 198.459C292.607 209.912 307.871 218.301 326.411 228.91C381.063 260.382 437.063 292.599 491.561 362.962C496.588 351.638 500.826 340.009 504.342 328.188C442.065 266.778 382.092 240.078 327.315 216.011C308.201 207.569 296.004 201.827 278.146 192.655C295.648 198.062 307.081 200.124 325.364 204.771C355.317 212.412 386.286 220.226 419.044 232.957C452.525 245.88 483.539 261.916 513.14 281.83C514.269 270.633 514.562 259.311 514.151 248.093C485.407 233.334 456.031 221.691 425.729 213.185C388.974 202.777 355.177 197.982 322.511 193.293C307.047 191.131 293.828 188.886 278.983 186.211C291.807 185.936 302.845 185.477 316.126 184.937C351.644 183.232 388.522 181.501 430.475 186.137C456.509 188.876 482.463 194.106 508.318 201.532C505.996 190.967 502.97 180.505 499.24 170.147C473.408 165.916 451.299 164.409 432.867 163.972C381.391 163.19 338.374 169.865 296.879 176.266C289.32 177.453 277.815 178.947 277.815 178.947C323.7 161.439 373.714 141.837 438.246 133.807C451.357 132.449 465.732 131.425 481.275 131.097C480.678 130.069 480.081 129.041 479.483 128.014C475.169 120.592 470.512 113.37 465.532 106.641C454.731 108.032 444.537 109.68 435.066 111.519C367.34 126.142 319.877 149.607 274.231 172.781C315.33 139.419 359.307 107.592 423.877 80.4454C428.614 78.6083 433.531 76.8191 438.563 74.9635C432.82 69.289 426.916 63.8615 420.735 58.7472C420.175 58.3091 419.614 57.8709 419.121 57.547C417.57 58.2956 415.905 59.1106 414.354 59.8593C344.075 96.8937 299.904 137.846 262.399 176.604C263.515 174.581 273.383 155.554 277.69 148.773C299.549 114.375 332.867 72.0937 385.351 34.4048C373.688 27.7422 361.424 21.8867 348.873 17.1145C301.38 60.7619 276.334 102.818 258.178 139.646C246.095 164.848 236.237 189.673 226.685 213.71C219.175 232.587 211.263 252.615 202.593 271.861C208.659 252.601 214.164 232.903 219.537 212.976C226.458 187.567 233.504 161.321 242.937 134.452C256.436 96.9698 275.676 53.8593 315.132 6.63483C302.284 3.7159 289.197 1.69968 276.051 0.634024C245.567 49.3646 231.813 92.1887 222.554 129.344C215.646 158.718 211.202 186.812 206.883 214.069C203.61 234.455 200.866 251.021 196.9 270.74C198.139 250.009 197.747 232.517 197.704 211.156C197.581 148.138 197.594 83.5145 231.285 1.14595C219.058 2.44876 206.821 4.52157 194.753 7.41218C172.626 92.0703 179.581 157.38 186.05 216.861C188.3 237.55 189.335 251.155 190.302 271.215C186.223 253.423 182.389 242.361 177.341 224.215C169.077 194.495 160.331 163.682 154.946 128.928" fill="white"/>
</mask>
<g mask="url(#mask0_4576_12605)">
<path d="M355.901 382.029L354.987 509.795L221.116 547.13L35.3329 475.263L-28.5728 229.024L183.388 293.194L197.712 292.964L218.794 275.504L313.828 286.77L326.111 303.92L355.901 382.029Z" fill="url(#paint0_linear_4576_12605)"/>
</g>
</g>
</g>
<defs>
<linearGradient id="paint0_linear_4576_12605" x1="83.7525" y1="514.782" x2="313.421" y2="282.09" gradientUnits="userSpaceOnUse">
<stop stop-color="#030303"/>
<stop offset="0.661632" stop-color="#FF6638"/>
<stop offset="0.9" stop-color="#FEB26F"/>
<stop offset="1" stop-color="#FFE7D1"/>
</linearGradient>
<clipPath id="clip0_4576_12605">
<rect width="514.396" height="514" fill="white"/>
</clipPath>
</defs>
</svg>
