<svg width="515" height="514" viewBox="0 0 515 514" fill="none" xmlns="http://www.w3.org/2000/svg">
<g clip-path="url(#clip0_4576_12599)">
<g opacity="0.9">
<path d="M318.679 291.76L195.858 292.236L256.857 185.686L318.679 291.76ZM419.083 232.205C452.545 245.018 483.643 261.142 513.303 280.969C514.063 272.646 514.427 264.193 514.394 255.608C514.383 252.835 514.372 250.062 514.229 247.157C485.513 232.477 456.15 220.836 425.741 212.37C388.854 201.947 355.159 197.191 322.521 192.563C307.06 190.378 293.845 188.184 279.044 185.6C291.721 185.287 302.945 184.847 316.149 184.267C351.669 182.545 388.509 180.818 430.523 185.277C456.551 188.082 482.456 193.132 508.369 200.56C505.951 189.872 503.005 179.45 499.268 169.295C473.498 165.037 451.306 163.67 432.815 163.213C381.306 162.488 338.41 169.126 296.834 175.626C289.311 176.844 277.827 178.341 277.827 178.341C323.718 160.73 373.696 141.255 438.245 133.081C451.446 131.709 465.705 130.598 481.42 130.273C476.632 121.707 471.318 113.539 465.609 105.769C454.785 107.132 444.623 108.888 435.121 110.642C367.427 125.299 319.974 148.859 274.369 172.015C315.444 138.575 359.431 106.709 423.906 79.5176C428.654 77.6502 433.533 75.9145 438.545 74.0461C432.314 67.9952 425.952 62.0768 419.195 56.5562C417.613 57.3547 416.032 58.1532 414.45 58.8197C344.202 95.9383 300.118 136.918 262.629 175.626C263.678 173.641 273.641 154.585 277.841 147.833C299.763 113.411 333.012 71.021 385.428 33.3111C373.78 26.6208 361.74 20.8565 349.043 16.0192C301.536 59.653 276.474 101.747 258.392 138.796C246.34 164.067 236.531 188.934 226.983 212.875C219.528 231.789 211.55 251.762 202.908 271.078C209.04 251.772 214.511 232.073 219.981 212.242C226.882 186.858 233.912 160.55 243.317 133.704C256.774 96.1447 276.153 53.0159 315.459 5.84796C302.769 2.85956 289.686 0.929205 276.344 -0.0756725C245.893 48.6428 232.06 91.486 222.959 128.764C216.074 158.11 211.56 186.257 207.307 213.479C204.084 233.83 201.111 250.35 197.226 270.175C198.466 249.436 198.266 232.004 198.184 210.609C197.94 147.614 197.953 82.9016 231.576 0.625916C219.166 1.86256 206.893 4.02315 195.018 6.97459C173.026 91.5825 180.015 156.928 186.452 216.466C188.646 237.192 189.886 250.658 190.757 270.86C186.726 253.047 182.854 242.101 177.633 223.896C169.33 194.213 160.626 163.343 155.209 128.63C149.657 93.2577 148.069 58.2662 150.308 22.5995C140.025 27.2616 130.009 32.7152 120.523 38.6949C122.101 71.0451 126.844 102.195 134.622 132.804C144.011 169.878 156.812 201.525 169.08 232.117C174.947 246.621 179.223 259.415 184.428 273.526C177.782 262.591 172.199 253.103 165.024 241.905C145.758 212.001 125.829 181.042 108.775 142.413C98.1168 118.55 89.6996 93.4899 83.1271 67.3661C75.0993 74.6608 67.6023 82.6139 60.503 90.9616C69.7101 115.358 79.5601 135.262 88.4713 151.472C113.606 196.409 140.811 230.245 167.219 263.028C171.996 268.952 179.031 278.17 179.031 278.17C140.877 247.282 99.0132 213.635 59.589 161.885C51.7558 151.218 43.7859 139.363 35.6778 125.923C30.6915 134.263 26.2345 142.864 22.3074 151.86C28.9443 160.551 35.4462 168.45 41.8139 175.821C88.3676 227.015 132.46 256.559 175.358 284.391C125.892 265.565 76.4126 243.305 20.5166 200.996C16.5424 197.842 12.5677 194.555 8.45984 191.006C6.50801 198.541 4.82083 206.207 3.53035 214.004C3.53392 214.929 3.27286 215.722 3.14438 216.647C4.60067 217.566 6.05747 218.617 7.51427 219.668C74.7673 261.801 132.418 279.671 184.635 292.807C182.39 292.816 160.867 293.824 152.941 293.458C112.258 291.767 58.8734 284.049 0.00125862 257.6L0.00279243 257.996C0.0549445 271.467 1.1631 284.801 3.19418 297.736C64.68 317.044 113.679 317.646 154.741 314.846C182.598 312.625 208.997 308.693 234.603 304.896C254.665 301.913 275.916 298.793 297.038 296.598C277.245 300.901 257.455 305.996 237.533 311.356C212.07 318.058 185.816 325.027 157.839 330.418C118.643 337.569 71.6455 342.374 10.9864 331.911C14.8653 344.574 19.6677 356.97 25.392 368.702C82.8489 370.725 126.79 361.178 163.595 350.47C192.484 341.774 219.122 331.501 244.837 321.629C264.09 314.291 279.783 308.287 298.908 301.874C280.322 311.19 265.434 320.228 246.986 330.997C192.433 362.64 136.562 395.081 48.3885 407.176C55.6909 417.185 63.6516 426.663 72.1385 435.611C156.439 412.305 209.512 373.668 257.711 338.219C274.568 325.872 285.632 318.169 302.494 307.275C289.072 319.741 281.578 328.618 268.424 342.14C246.851 364.279 224.62 387.212 197.236 409.241C169.325 431.801 139.947 450.668 107.916 466.376C117.054 472.944 126.717 478.849 136.643 484.094C163.781 466.556 188.533 446.914 211.031 424.904C238.398 398.253 259.425 371.362 279.794 345.398C289.388 333.078 297.932 322.744 307.66 311.217C301.497 322.466 296.384 332.259 290.222 344.037C273.969 375.663 257.059 408.482 232.098 442.519C216.728 463.71 199.24 483.587 179.899 502.283C190.213 505.545 200.788 508.146 211.625 510.085C228.187 489.814 240.53 471.409 250.11 455.656C276.484 411.444 292.175 370.839 307.343 331.688C310.089 324.546 314.538 313.831 314.538 313.831C306.802 362.33 298.819 415.451 273.562 475.375C268.194 487.414 261.905 500.381 254.43 514.013C255.619 514.008 256.807 514.004 257.996 513.999C266.58 513.966 275.163 513.537 283.479 512.58C287.666 502.527 291.327 492.872 294.461 483.747C315.601 417.764 318.962 364.924 321.669 313.804C330.06 366.07 335.684 420.063 326.972 489.564C326.199 494.586 325.295 499.74 324.391 505.026C332.174 502.883 339.825 500.476 347.342 497.673C348.001 497.407 348.66 497.14 349.188 496.874C349.313 495.156 349.438 493.307 349.563 491.59C352.558 412.206 339.124 353.488 324.264 301.643C325.46 303.62 337.02 321.668 340.745 328.785C359.638 364.899 379.642 414.874 386.098 479.166C397.693 472.386 408.889 464.682 419.29 456.19C405.179 393.249 381.242 350.552 358.394 316.435C342.589 293.384 326 272.45 309.941 252.174C297.333 236.243 283.929 219.39 271.58 202.269C285.241 217.14 299.561 231.744 314.144 246.347C332.706 265.028 351.93 284.236 370.503 305.823C396.242 336.23 423.992 374.422 445.214 432.185C454.157 422.51 462.437 412.177 469.923 401.318C442.917 350.577 412.677 317.281 385.104 290.71C363.101 270.061 340.977 252.186 319.515 234.836C303.484 221.823 290.5 211.176 275.393 197.896C292.738 209.319 308.091 217.712 326.621 228.337C381.286 259.69 437.275 291.961 491.827 362.274C496.802 351.029 501.115 339.39 504.635 327.491C442.326 266.057 382.264 239.48 327.495 215.391C308.445 207.013 296.14 201.117 278.276 191.942C295.729 197.289 307.228 199.49 325.471 204.173C355.348 211.85 386.414 219.653 419.215 232.337" fill="#CAB5AE"/>
<mask id="mask0_4576_12599" style="mask-type:alpha" maskUnits="userSpaceOnUse" x="0" y="-1" width="515" height="516">
<path d="M318.679 291.76L195.858 292.236L256.857 185.686L318.679 291.76ZM419.083 232.205C452.545 245.018 483.643 261.142 513.303 280.969C514.063 272.646 514.427 264.193 514.394 255.608C514.383 252.835 514.372 250.062 514.229 247.157C485.513 232.477 456.15 220.836 425.741 212.37C388.854 201.947 355.159 197.191 322.521 192.563C307.06 190.378 293.845 188.184 279.044 185.6C291.721 185.287 302.945 184.847 316.149 184.267C351.669 182.545 388.509 180.818 430.523 185.277C456.551 188.082 482.456 193.132 508.369 200.56C505.951 189.872 503.005 179.45 499.268 169.295C473.498 165.037 451.306 163.67 432.815 163.213C381.306 162.488 338.41 169.126 296.834 175.626C289.311 176.844 277.827 178.341 277.827 178.341C323.718 160.73 373.696 141.255 438.245 133.081C451.446 131.709 465.705 130.598 481.42 130.273C476.632 121.707 471.318 113.539 465.609 105.769C454.785 107.132 444.623 108.888 435.121 110.642C367.427 125.299 319.974 148.859 274.369 172.015C315.444 138.575 359.431 106.709 423.906 79.5176C428.654 77.6502 433.533 75.9145 438.545 74.0461C432.314 67.9952 425.952 62.0768 419.195 56.5562C417.613 57.3547 416.032 58.1532 414.45 58.8197C344.202 95.9383 300.118 136.918 262.629 175.626C263.678 173.641 273.641 154.585 277.841 147.833C299.763 113.411 333.012 71.021 385.428 33.3111C373.78 26.6208 361.74 20.8565 349.043 16.0192C301.536 59.653 276.474 101.747 258.392 138.796C246.34 164.067 236.531 188.934 226.983 212.875C219.528 231.789 211.55 251.762 202.908 271.078C209.04 251.772 214.511 232.073 219.981 212.242C226.882 186.858 233.912 160.55 243.317 133.704C256.774 96.1447 276.153 53.0159 315.459 5.84796C302.769 2.85956 289.687 0.929205 276.344 -0.0756725C245.893 48.6428 232.06 91.486 222.959 128.764C216.074 158.11 211.56 186.257 207.307 213.479C204.084 233.83 201.111 250.35 197.226 270.175C198.466 249.436 198.266 232.004 198.184 210.609C197.94 147.614 197.953 82.9016 231.576 0.625916C219.166 1.86256 206.893 4.02315 195.018 6.97459C173.026 91.5825 180.015 156.928 186.452 216.466C188.646 237.192 189.886 250.658 190.757 270.86C186.726 253.047 182.854 242.101 177.633 223.896C169.33 194.213 160.626 163.343 155.209 128.63C149.657 93.2577 148.069 58.2662 150.308 22.5995C140.025 27.2616 130.009 32.7152 120.523 38.6949C122.101 71.0451 126.844 102.195 134.622 132.804C144.011 169.878 156.812 201.525 169.08 232.117C174.947 246.621 179.223 259.415 184.428 273.526C177.782 262.591 172.199 253.103 165.024 241.905C145.758 212.001 125.829 181.042 108.775 142.413C98.1168 118.55 89.6996 93.4899 83.1271 67.3661C75.0993 74.6608 67.6023 82.6139 60.503 90.9616C69.7101 115.358 79.5601 135.262 88.4713 151.472C113.606 196.409 140.811 230.245 167.219 263.028C171.996 268.952 179.031 278.17 179.031 278.17C140.877 247.282 99.0132 213.635 59.589 161.885C51.7558 151.218 43.7859 139.363 35.6778 125.923C30.6915 134.263 26.2345 142.864 22.3074 151.86C28.9443 160.551 35.4462 168.45 41.8139 175.821C88.3676 227.015 132.46 256.559 175.358 284.391C125.892 265.565 76.4126 243.305 20.5166 200.996C16.5424 197.842 12.5677 194.555 8.45984 191.006C6.50801 198.541 4.82083 206.207 3.53035 214.004C3.53392 214.929 3.27286 215.722 3.14438 216.647C4.60067 217.566 6.05747 218.617 7.51427 219.668C74.7673 261.801 132.418 279.671 184.635 292.807C182.39 292.816 160.867 293.824 152.941 293.458C112.258 291.767 58.8734 284.049 0.00125862 257.6L0.00279243 257.996C0.0549445 271.467 1.1631 284.801 3.19418 297.736C64.68 317.044 113.679 317.646 154.741 314.846C182.598 312.625 208.997 308.693 234.603 304.896C254.665 301.913 275.916 298.793 297.038 296.598C277.245 300.901 257.455 305.996 237.533 311.356C212.07 318.058 185.816 325.027 157.839 330.418C118.643 337.569 71.6455 342.374 10.9864 331.911C14.8653 344.574 19.6677 356.97 25.392 368.702C82.8489 370.725 126.79 361.178 163.595 350.47C192.484 341.774 219.122 331.501 244.837 321.629C264.09 314.291 279.783 308.287 298.908 301.874C280.322 311.19 265.434 320.228 246.986 330.997C192.433 362.64 136.562 395.081 48.3885 407.176C55.6909 417.185 63.6516 426.663 72.1385 435.611C156.439 412.305 209.512 373.668 257.711 338.219C274.568 325.872 285.632 318.169 302.494 307.275C289.072 319.741 281.578 328.618 268.424 342.14C246.851 364.279 224.62 387.212 197.236 409.241C169.325 431.801 139.947 450.668 107.916 466.376C117.054 472.944 126.717 478.849 136.643 484.094C163.781 466.556 188.533 446.914 211.031 424.904C238.398 398.253 259.425 371.362 279.794 345.398C289.388 333.078 297.932 322.744 307.66 311.217C301.497 322.466 296.384 332.259 290.222 344.037C273.969 375.663 257.059 408.482 232.098 442.519C216.728 463.71 199.24 483.587 179.899 502.283C190.213 505.545 200.788 508.146 211.625 510.085C228.187 489.814 240.53 471.409 250.11 455.656C276.484 411.444 292.175 370.839 307.343 331.688C310.089 324.546 314.538 313.831 314.538 313.831C306.802 362.33 298.819 415.451 273.562 475.375C268.194 487.414 261.905 500.381 254.43 514.013C255.619 514.008 256.807 514.004 257.996 513.999C266.58 513.966 275.163 513.537 283.479 512.58C287.666 502.527 291.327 492.872 294.461 483.747C315.601 417.764 318.962 364.924 321.669 313.804C330.06 366.07 335.684 420.063 326.972 489.564C326.199 494.586 325.295 499.74 324.391 505.026C332.174 502.883 339.825 500.476 347.342 497.673C348.001 497.407 348.66 497.14 349.188 496.874C349.313 495.156 349.438 493.307 349.563 491.59C352.558 412.206 339.124 353.488 324.264 301.643C325.46 303.62 337.02 321.668 340.745 328.785C359.638 364.899 379.642 414.874 386.098 479.166C397.693 472.386 408.889 464.682 419.29 456.19C405.179 393.249 381.242 350.552 358.394 316.435C342.589 293.384 326 272.45 309.941 252.174C297.333 236.243 283.929 219.39 271.58 202.269C285.241 217.14 299.561 231.744 314.144 246.347C332.706 265.028 351.93 284.236 370.503 305.823C396.242 336.23 423.992 374.422 445.214 432.185C454.157 422.51 462.437 412.177 469.923 401.318C442.917 350.577 412.677 317.281 385.104 290.71C363.101 270.061 340.977 252.186 319.515 234.836C303.484 221.823 290.5 211.176 275.393 197.896C292.738 209.319 308.091 217.712 326.621 228.337C381.286 259.69 437.275 291.961 491.827 362.274C496.802 351.029 501.115 339.39 504.635 327.491C442.326 266.057 382.264 239.48 327.495 215.391C308.445 207.013 296.14 201.117 278.276 191.942C295.729 197.289 307.228 199.49 325.471 204.173C355.348 211.85 386.414 219.653 419.215 232.337" fill="white"/>
</mask>
<g mask="url(#mask0_4576_12599)">
<path d="M99.5895 280.111L-10.6613 215.537L23.8177 80.9026L178.835 -44.1985L424.098 23.3525L262.684 174.979L255.732 187.506L260.337 214.488L203.133 291.21L182.141 293.291L99.5895 280.111Z" fill="url(#paint0_linear_4576_12599)"/>
</g>
</g>
</g>
<defs>
<linearGradient id="paint0_linear_4576_12599" x1="120.42" y1="-21.9721" x2="207.391" y2="293.193" gradientUnits="userSpaceOnUse">
<stop stop-color="#030303"/>
<stop offset="0.661632" stop-color="#FF6638"/>
<stop offset="0.9" stop-color="#FEB26F"/>
<stop offset="1" stop-color="#FFE7D1"/>
</linearGradient>
<clipPath id="clip0_4576_12599">
<rect width="514.396" height="514" fill="white"/>
</clipPath>
</defs>
</svg>
