<svg width="515" height="514" viewBox="0 0 515 514" fill="none" xmlns="http://www.w3.org/2000/svg">
<g clip-path="url(#clip0_4576_12600)">
<g opacity="0.9">
<path d="M196.337 292.832L257.39 186.26L319.111 292.392L196.337 292.832ZM197.651 409.562C169.812 432.121 140.29 450.976 108.281 466.732C115.106 471.555 122.243 476.1 129.692 480.367C132.098 481.746 134.505 483.125 137.091 484.454C164.172 466.94 188.944 447.343 211.492 425.254C238.975 398.534 259.956 371.742 280.296 345.8C289.925 333.509 298.438 323.166 308.082 311.644C302.009 322.776 296.773 332.714 290.667 344.436C274.382 376.049 257.442 408.808 232.555 442.952C217.101 464.082 199.765 483.982 180.366 502.701C190.83 505.955 201.327 508.621 211.989 510.467C228.572 490.288 240.861 471.758 250.51 455.977C276.915 411.746 292.636 371.286 307.814 332.038C310.525 324.915 314.976 314.223 314.976 314.223C307.257 362.767 299.107 415.783 273.88 475.758C268.461 487.874 262.288 500.775 254.705 514.543C264.517 514.685 274.248 514.171 283.832 513.117C288.069 503.064 291.634 493.387 294.871 484.283C316.058 418.341 319.408 365.467 322.183 314.395C330.579 366.692 336.155 420.721 327.43 490.15C326.671 495.194 325.731 500.288 324.841 505.561C333.198 503.195 341.506 500.649 349.667 497.562C349.767 495.793 349.867 494.024 350.082 492.32C353.101 412.926 339.683 354.252 324.932 302.424C326.126 304.325 337.638 322.488 341.381 329.503C360.212 365.708 380.273 415.708 386.69 479.96C398.311 473.224 409.327 465.685 419.87 457.113C405.867 394.146 381.965 351.383 358.939 317.187C343.091 294.106 326.471 273.169 310.522 252.922C297.877 237.002 284.578 220.099 272.18 202.951C285.825 217.922 300.142 232.516 314.574 247.176C333.097 265.854 352.356 285.106 370.892 306.684C396.674 337.131 424.316 375.492 445.482 433.126C454.42 423.635 462.638 413.275 470.186 402.227C443.246 351.482 413.076 318.065 385.356 291.531C363.396 270.884 341.285 252.89 319.845 235.585C303.839 222.61 291.024 211.768 275.805 198.483C293.14 209.936 308.332 218.487 326.896 229.122C381.557 260.436 437.576 292.833 491.982 363.117C497.122 351.754 501.393 340.047 504.781 328.289C442.535 266.908 382.463 240.256 327.696 216.035C308.655 207.561 296.375 201.897 278.449 192.54C295.888 197.965 307.303 200.09 325.678 204.681C355.531 212.347 386.613 220.26 419.377 232.941C452.78 245.837 483.869 261.973 513.628 281.761C514.738 270.525 515.029 259.124 514.599 247.919C485.801 233.096 456.459 221.614 426.066 213.03C389.27 202.604 355.465 197.85 322.84 193.162C307.346 190.983 294.13 188.282 279.308 185.727C292.102 185.446 303.11 185.359 316.395 184.751C351.927 183.038 388.703 181.276 430.682 185.843C456.676 188.558 482.584 193.811 508.491 201.195C506.192 190.594 503.059 180.123 499.384 169.799C473.655 165.561 451.493 164.128 433 163.731C381.516 163.003 338.607 169.624 297.01 176.081C289.49 177.252 277.989 178.73 277.989 178.73C323.825 161.155 373.906 141.749 438.438 133.515C451.594 132.071 465.846 131.104 481.539 130.81C476.814 122.319 471.598 114.156 465.775 106.254C454.929 107.651 444.837 109.327 435.269 111.152C367.649 125.837 320.005 149.226 274.441 172.436C315.495 139.032 359.528 107.334 424.131 80.1142C428.851 78.252 433.685 76.4554 438.814 74.6755C433.267 69.2146 427.474 63.9173 421.369 58.8981C420.567 58.4386 420.011 57.8155 419.274 57.2414C417.75 58.0424 416.111 58.7777 414.472 59.5131C344.339 96.6535 300.017 137.622 262.512 176.256C263.628 174.308 273.526 155.17 277.809 148.491C299.633 114.116 333.03 71.7588 385.392 34.0256L385.048 33.8287C373.359 27.1325 361.26 21.4188 349.045 16.7042C301.559 60.2743 276.516 102.395 258.391 139.346C246.373 164.576 236.567 189.398 227.039 213.468C219.582 232.33 211.648 252.29 202.978 271.675C209.158 252.385 214.651 232.701 219.98 212.772C226.92 187.373 234.026 161.155 243.359 134.235C256.783 96.7217 276.143 53.6287 315.558 6.34774C302.653 3.36873 289.518 1.32316 276.496 0.407987C245.991 49.1402 232.267 91.9608 223.118 129.184C216.19 158.547 211.753 186.75 207.431 213.954C204.149 234.295 201.494 250.886 197.475 270.653C198.71 249.9 198.336 232.487 198.245 211.126C198.15 148.06 198.024 83.4546 231.678 1.06339C219.358 2.37678 207.168 4.52571 195.175 7.39562C173.165 92.0437 180.055 157.329 186.624 216.798C188.879 237.571 190.011 251.005 191.004 271.056C186.929 253.196 182.993 242.266 177.869 224.11C169.498 194.354 160.768 163.63 155.4 128.897C149.837 93.4433 148.204 58.5669 150.635 22.9742C140.375 27.5987 130.426 33.0099 120.919 38.9785C122.522 71.2503 127.14 102.51 134.936 133.003C144.315 170.034 157.074 201.695 169.359 232.324C175.223 246.795 179.895 259.364 185.006 273.555C178.351 262.589 172.432 253.262 165.318 242.034C146.071 212.134 126.12 181.071 109.143 142.426C98.4887 118.515 90.0309 93.4271 83.5235 67.3255C75.5381 74.6226 67.9943 82.4771 60.8923 90.889C70.1534 115.372 79.911 135.269 88.7553 151.446C113.834 196.406 141.137 230.311 167.441 263.036C172.251 268.988 179.301 278.201 179.301 278.201C141.184 247.233 99.1873 213.737 59.9465 161.882C52.2101 151.21 44.1311 139.276 36.0699 125.982C35.479 127.014 34.8882 128.045 34.2974 129.076C30.0302 136.525 26.1069 144.17 22.7732 151.849C29.3816 160.506 35.9087 168.507 42.2401 175.786C88.7873 227.109 132.852 256.462 175.756 284.389C126.306 265.497 76.7461 243.346 20.934 201.022C16.9733 197.84 12.9637 194.478 8.83949 191.05C6.79975 198.861 5.05483 206.689 3.71934 214.6C3.62029 215.304 3.52121 216.008 3.48781 216.598C4.91187 217.566 6.45055 218.599 7.87462 219.567C75.1041 261.887 132.663 279.641 184.985 292.721C182.676 292.767 161.265 293.743 153.239 293.407C112.518 291.692 59.2398 284 0.347265 257.415C0.414494 270.847 1.48083 284.395 3.62861 297.65C65.1828 316.932 114.128 317.575 155.099 314.868C182.965 312.72 209.391 308.833 234.982 305.077C255.085 302.134 276.383 298.963 297.386 296.841C277.675 301.225 257.865 306.315 237.924 311.633C212.461 318.354 186.211 325.385 158.227 330.662C119.02 337.729 72.0674 342.641 11.4374 332.107C15.3386 344.692 20.141 357.032 25.7958 368.947C83.2409 370.959 127.201 361.44 164.004 350.866C192.892 342.15 219.44 331.941 245.202 322.043C264.49 314.676 280.205 308.763 299.263 302.33C280.694 311.63 265.745 320.722 247.272 331.447C192.771 363.085 136.812 395.408 48.6376 407.45C55.8834 417.385 63.8013 426.943 72.3422 435.946C156.712 412.744 209.779 374.046 258.042 338.683C274.83 326.383 286.092 318.68 302.976 307.805C289.612 320.24 281.952 329.094 268.768 342.544C247.17 364.569 224.867 387.56 197.471 409.611" fill="#CAB5AE"/>
<mask id="mask0_4576_12600" style="mask-type:alpha" maskUnits="userSpaceOnUse" x="0" y="0" width="515" height="515">
<path d="M196.337 292.831L257.39 186.26L319.111 292.392L196.337 292.831ZM197.651 409.562C169.812 432.121 140.29 450.976 108.281 466.732C115.106 471.555 122.243 476.1 129.692 480.367C132.098 481.746 134.505 483.125 137.091 484.454C164.172 466.94 188.944 447.343 211.492 425.254C238.975 398.534 259.956 371.742 280.296 345.8C289.925 333.509 298.438 323.166 308.082 311.644C302.009 322.776 296.773 332.714 290.667 344.436C274.382 376.049 257.442 408.808 232.555 442.952C217.101 464.082 199.765 483.982 180.366 502.701C190.83 505.955 201.327 508.621 211.989 510.467C228.572 490.288 240.861 471.758 250.51 455.977C276.915 411.746 292.636 371.286 307.814 332.038C310.525 324.915 314.976 314.223 314.976 314.223C307.257 362.767 299.107 415.783 273.88 475.758C268.461 487.874 262.288 500.775 254.705 514.543C264.517 514.685 274.248 514.171 283.832 513.117C288.069 503.064 291.634 493.387 294.871 484.283C316.058 418.341 319.408 365.467 322.183 314.395C330.579 366.692 336.155 420.721 327.43 490.15C326.671 495.194 325.731 500.288 324.841 505.561C333.198 503.195 341.506 500.649 349.667 497.562C349.767 495.793 349.867 494.024 350.082 492.32C353.101 412.926 339.683 354.252 324.932 302.424C326.126 304.325 337.638 322.488 341.381 329.503C360.212 365.708 380.273 415.708 386.69 479.96C398.311 473.224 409.327 465.685 419.87 457.113C405.867 394.146 381.965 351.383 358.939 317.187C343.091 294.106 326.471 273.169 310.522 252.922C297.877 237.002 284.578 220.099 272.18 202.951C285.825 217.922 300.142 232.516 314.574 247.176C333.097 265.854 352.356 285.106 370.892 306.684C396.674 337.131 424.316 375.492 445.482 433.126C454.42 423.635 462.638 413.275 470.186 402.227C443.246 351.482 413.076 318.065 385.356 291.531C363.396 270.884 341.285 252.89 319.845 235.585C303.839 222.61 291.024 211.768 275.805 198.483C293.14 209.936 308.332 218.487 326.896 229.122C381.557 260.436 437.576 292.833 491.982 363.117C497.122 351.754 501.393 340.047 504.781 328.289C442.535 266.908 382.463 240.256 327.696 216.035C308.655 207.561 296.375 201.897 278.449 192.54C295.888 197.965 307.303 200.09 325.678 204.681C355.531 212.347 386.613 220.26 419.377 232.941C452.78 245.837 483.869 261.973 513.628 281.761C514.738 270.525 515.029 259.124 514.599 247.919C485.801 233.096 456.459 221.614 426.066 213.03C389.27 202.604 355.465 197.85 322.84 193.162C307.346 190.983 294.13 188.282 279.308 185.727C292.102 185.446 303.11 185.359 316.395 184.751C351.927 183.038 388.703 181.276 430.682 185.843C456.676 188.558 482.584 193.811 508.491 201.195C506.192 190.594 503.059 180.123 499.384 169.799C473.655 165.561 451.493 164.128 433 163.731C381.516 163.003 338.607 169.624 297.01 176.081C289.49 177.252 277.989 178.73 277.989 178.73C323.825 161.155 373.906 141.749 438.438 133.515C451.594 132.071 465.846 131.104 481.539 130.81C476.814 122.319 471.598 114.156 465.775 106.254C454.929 107.651 444.837 109.327 435.269 111.152C367.649 125.837 320.005 149.226 274.441 172.436C315.495 139.032 359.528 107.334 424.131 80.1142C428.851 78.252 433.685 76.4554 438.814 74.6755C433.267 69.2146 427.474 63.9173 421.369 58.8981C420.567 58.4386 420.011 57.8155 419.274 57.2414C417.75 58.0424 416.111 58.7777 414.472 59.5131C344.339 96.6535 300.017 137.622 262.512 176.256C263.628 174.308 273.526 155.17 277.809 148.491C299.633 114.116 333.03 71.7588 385.392 34.0256L385.048 33.8287C373.359 27.1325 361.26 21.4188 349.045 16.7042C301.559 60.2743 276.516 102.395 258.391 139.346C246.373 164.576 236.567 189.398 227.039 213.468C219.582 232.33 211.648 252.29 202.978 271.675C209.158 252.385 214.651 232.701 219.98 212.772C226.92 187.373 234.026 161.155 243.359 134.235C256.783 96.7217 276.143 53.6287 315.558 6.34774C302.653 3.36872 289.518 1.32315 276.496 0.40798C245.991 49.1402 232.267 91.9608 223.118 129.184C216.19 158.547 211.753 186.75 207.431 213.954C204.149 234.295 201.494 250.886 197.475 270.653C198.71 249.9 198.336 232.487 198.245 211.126C198.15 148.06 198.024 83.4546 231.678 1.06339C219.358 2.37677 207.168 4.52571 195.175 7.39561C173.165 92.0437 180.055 157.328 186.624 216.798C188.879 237.571 190.011 251.005 191.004 271.056C186.929 253.196 182.993 242.266 177.869 224.11C169.498 194.354 160.768 163.63 155.4 128.897C149.837 93.4433 148.204 58.5669 150.635 22.9742C140.375 27.5987 130.426 33.0099 120.919 38.9785C122.522 71.2503 127.14 102.51 134.936 133.003C144.315 170.034 157.074 201.695 169.359 232.324C175.223 246.795 179.895 259.364 185.006 273.555C178.351 262.589 172.432 253.262 165.318 242.034C146.071 212.134 126.12 181.071 109.143 142.426C98.4887 118.515 90.0309 93.4271 83.5235 67.3255C75.5381 74.6226 67.9943 82.4771 60.8922 90.889C70.1534 115.372 79.911 135.269 88.7553 151.446C113.834 196.406 141.137 230.311 167.441 263.036C172.251 268.988 179.301 278.201 179.301 278.201C141.184 247.233 99.1873 213.737 59.9465 161.882C52.2101 151.21 44.1311 139.276 36.0699 125.982C35.479 127.014 34.8882 128.045 34.2974 129.076C30.0302 136.525 26.1069 144.17 22.7732 151.849C29.3815 160.506 35.9087 168.507 42.2401 175.786C88.7873 227.109 132.852 256.462 175.756 284.389C126.306 265.497 76.7461 243.346 20.934 201.022C16.9733 197.84 12.9637 194.478 8.83949 191.05C6.79975 198.861 5.05483 206.689 3.71935 214.6C3.6203 215.304 3.52122 216.008 3.48781 216.598C4.91188 217.566 6.45056 218.599 7.87462 219.567C75.1041 261.887 132.663 279.641 184.985 292.721C182.676 292.767 161.265 293.743 153.239 293.407C112.518 291.692 59.2398 284 0.347247 257.415C0.414476 270.847 1.48082 284.395 3.6286 297.65C65.1828 316.932 114.128 317.575 155.099 314.868C182.965 312.72 209.391 308.833 234.982 305.077C255.085 302.134 276.383 298.963 297.386 296.841C277.675 301.225 257.865 306.315 237.924 311.633C212.461 318.354 186.211 325.385 158.227 330.662C119.02 337.729 72.0674 342.641 11.4374 332.107C15.3386 344.692 20.141 357.032 25.7958 368.947C83.2409 370.959 127.201 361.44 164.004 350.866C192.892 342.15 219.44 331.941 245.202 322.043C264.49 314.676 280.206 308.763 299.263 302.33C280.694 311.63 265.745 320.722 247.272 331.447C192.771 363.085 136.812 395.408 48.6376 407.45C55.8834 417.385 63.8013 426.943 72.3422 435.946C156.712 412.744 209.779 374.046 258.042 338.683C274.83 326.383 286.092 318.68 302.976 307.805C289.612 320.24 281.952 329.094 268.768 342.544C247.17 364.569 224.867 387.56 197.471 409.611" fill="white"/>
</mask>
<g mask="url(#mask0_4576_12600)">
<path d="M316.068 108.981L427.148 45.8443L526.456 143.072L557.188 339.887L375.964 518.423L325.469 302.795L318.103 290.508L292.438 280.991L254.641 193.071L263.345 173.855L316.068 108.981Z" fill="url(#paint0_linear_4576_12600)"/>
</g>
</g>
</g>
<defs>
<linearGradient id="paint0_linear_4576_12600" x1="567.178" y1="278.19" x2="250.793" y2="195.765" gradientUnits="userSpaceOnUse">
<stop stop-color="#030303"/>
<stop offset="0.661632" stop-color="#FF6638"/>
<stop offset="0.9" stop-color="#FEB26F"/>
<stop offset="1" stop-color="#FFE7D1"/>
</linearGradient>
<clipPath id="clip0_4576_12600">
<rect width="514.396" height="514" fill="white"/>
</clipPath>
</defs>
</svg>
