<svg xmlns="http://www.w3.org/2000/svg" width="154" height="28" viewBox="0 0 154 28" fill="none">
<g clip-path="url(#clip0_4303_63)">
<path d="M120.273 8.70596H121.223C122.295 8.70596 122.979 8.78511 123.785 9.20249C124.598 9.61266 125.195 10.6561 125.195 11.6851C125.195 12.7142 124.634 13.9879 123.058 14.434C122.475 14.6068 121.892 14.6283 120.273 14.6283V8.71315V8.70596ZM126.721 11.7211C126.721 10.0228 125.785 8.52605 124.281 7.81364C123.771 7.57617 122.929 7.29552 120.95 7.29552H118.633V20.8746H120.273V14.9666L124.699 20.8746H126.627L122.835 15.8661C125.39 15.6214 126.728 13.6137 126.728 11.7139" fill="white"/>
<path d="M37.7951 15.6288L40.1266 10.167L42.4078 15.6288H37.7951ZM33.8732 20.9035H35.5355L37.1834 17.032H43.0051L44.617 20.9035H46.3009L40.1698 6.61929L33.8804 20.9035H33.8732Z" fill="white"/>
<path d="M51.0638 7.27554H49.5454V20.9049H55.9355V19.4945H51.0638V7.27554Z" fill="white"/>
<path d="M57.3468 8.68598H60.6426V20.9049H62.161V8.68598H65.4856V7.27554H57.3468V8.68598Z" fill="white"/>
<path d="M71.5169 7.27554H69.9985V20.9049H71.5169V7.27554Z" fill="white"/>
<path d="M84.1016 17.9391L79.1507 6.4973L76.3802 20.9039H77.9417L79.6904 11.6857H79.7335L84.1016 21.4652L88.4984 11.6857H88.5344L90.2902 20.9039H91.8446L89.0741 6.4973L84.1016 17.9391Z" fill="white"/>
<path d="M95.7732 20.9049H102.847V19.4945H97.2988V14.1478H102.681V12.7374H97.2988V8.68598H102.847V7.27554H95.7732V20.9049Z" fill="white"/>
<path d="M106.301 8.68598H109.589V20.9049H111.108V8.68598H114.432V7.27554H106.301V8.68598Z" fill="white"/>
<path d="M133.213 7.27554H131.694V20.9049H133.213V7.27554Z" fill="white"/>
<path d="M146.267 7.27554L140.467 13.1116V7.27554H138.949V20.9049H140.467V15.0329L140.849 14.6515L146.433 20.9049H148.527L141.914 13.6225L148.311 7.27554H146.267Z" fill="white"/>
<path d="M17.3609 15.9106H10.6685L14.0147 10.1177L17.3609 15.9106ZM22.8443 12.6867C24.6649 13.3919 26.356 14.2771 27.9679 15.3637C28.0111 14.9103 28.0327 14.4498 28.0327 13.982C28.0327 13.8309 28.0327 13.6798 28.0255 13.5215C26.464 12.7155 24.8664 12.075 23.2113 11.6073C21.2036 11.0316 19.3686 10.7654 17.5912 10.5063C16.7492 10.384 16.0296 10.2616 15.2237 10.1177C15.9145 10.1033 16.5262 10.0817 17.2458 10.0529C19.1815 9.96659 21.1892 9.88024 23.4776 10.1321C24.8952 10.2904 26.3056 10.5711 27.7161 10.9812C27.5865 10.3984 27.4282 9.82987 27.2267 9.27577C25.8235 9.03829 24.6146 8.95914 23.6071 8.93035C20.8006 8.87998 18.4619 9.23259 16.1951 9.578C15.785 9.64277 15.1589 9.72192 15.1589 9.72192C17.6631 8.77204 20.3905 7.72141 23.9093 7.28964C24.629 7.21768 25.4061 7.16011 26.2625 7.14572C26.0034 6.67798 25.7156 6.23182 25.4061 5.80725C24.8161 5.87921 24.262 5.97276 23.7438 6.06631C20.0522 6.85068 17.4616 8.12439 14.9718 9.37651C17.217 7.5631 19.6205 5.83603 23.1394 4.36803C23.3984 4.26728 23.6647 4.17373 23.9381 4.07299C23.5999 3.74197 23.2545 3.41814 22.8875 3.11591C22.8011 3.15909 22.7148 3.20226 22.6284 3.23824C18.7929 5.24595 16.3822 7.46955 14.3313 9.57081C14.3889 9.46286 14.9358 8.42663 15.1661 8.05963C16.3678 6.18864 18.1885 3.88589 21.0525 1.8422C20.4192 1.4752 19.7644 1.15857 19.0736 0.892316C16.4758 3.25983 15.1013 5.54819 14.1083 7.5631C13.4462 8.93755 12.9065 10.2904 12.3812 11.5929C11.971 12.6219 11.5321 13.7086 11.0571 14.7592C11.3953 13.7086 11.6976 12.6363 11.9998 11.5569C12.3812 10.1753 12.7698 8.74325 13.2879 7.28245C14.0291 5.23876 15.0941 2.89283 17.2458 0.33102C16.5549 0.16551 15.8425 0.0575688 15.1157 0C13.4462 2.64816 12.6834 4.9797 12.1797 7.009C11.7983 8.60653 11.5465 10.1393 11.309 11.6217C11.1291 12.7299 10.9636 13.6294 10.7477 14.7088C10.8197 13.579 10.8125 12.6291 10.8125 11.4634C10.8125 8.03084 10.8268 4.50475 12.6762 0.0287844C11.9998 0.0935492 11.3306 0.208687 10.6829 0.367001C9.46678 4.9725 9.83379 8.53457 10.172 11.78C10.2871 12.9098 10.3519 13.6438 10.3951 14.7448C10.1792 13.7733 9.97051 13.176 9.68986 12.183C9.24371 10.5639 8.77596 8.87998 8.48812 6.98741C8.19308 5.05885 8.11392 3.15189 8.24345 1.20894C7.68215 1.46081 7.13525 1.75585 6.61713 2.07967C6.69629 3.84271 6.94815 5.54099 7.36553 7.21049C7.86925 9.23259 8.56008 10.9597 9.22212 12.6291C9.53875 13.4207 9.76902 14.1187 10.0497 14.8887C9.68986 14.2914 9.38763 13.7733 8.99904 13.1617C7.95561 11.5281 6.87619 9.83706 5.95509 7.72861C5.3794 6.42611 4.92605 5.05885 4.57344 3.63403C4.13448 4.02981 3.7243 4.46158 3.33571 4.91493C3.83224 6.24621 4.36475 7.33282 4.84689 8.21794C6.20695 10.6718 7.68215 12.5212 9.11418 14.313C9.37324 14.6369 9.75463 15.1406 9.75463 15.1406C7.68215 13.4495 5.40819 11.6073 3.27095 8.77924C2.84638 8.19635 2.41461 7.5487 1.97565 6.8147C1.7022 7.26806 1.45753 7.7358 1.24165 8.22514C1.60145 8.70008 1.95406 9.13184 2.29948 9.53483C4.8253 12.3341 7.2216 13.9532 9.55314 15.4788C6.8618 14.4426 4.17046 13.2192 1.13371 10.9021C0.917825 10.7294 0.701943 10.5495 0.478864 10.3552C0.370922 10.7654 0.277373 11.1827 0.205412 11.6073C0.205412 11.6577 0.19102 11.7008 0.183824 11.7512C0.262981 11.8016 0.342138 11.8592 0.421295 11.9167C4.07691 14.2267 7.21441 15.2125 10.0569 15.9393C9.93453 15.9393 8.76157 15.9897 8.3298 15.9681C6.1134 15.8674 3.20618 15.4356 0.00392151 13.982V14.0036C0.00392151 14.7376 0.0614903 15.4644 0.169432 16.1696C3.51562 17.2346 6.18537 17.2778 8.42335 17.1339C9.94173 17.0188 11.3809 16.8101 12.777 16.6086C13.8708 16.4503 15.0294 16.2848 16.1807 16.1696C15.1013 16.3999 14.0219 16.6734 12.9353 16.9612C11.5465 17.321 10.1144 17.6952 8.58886 17.983C6.45162 18.3644 3.88981 18.6163 0.586805 18.0334C0.795492 18.7242 1.05455 19.4007 1.36398 20.0411C4.49428 20.1635 6.89058 19.6525 8.89829 19.0768C10.4742 18.6091 11.9278 18.055 13.3311 17.5225C14.3817 17.1267 15.2381 16.8029 16.2815 16.4575C15.2668 16.9612 14.4537 17.4505 13.4462 18.0334C10.467 19.7461 7.4159 21.5019 2.60891 22.1424C3.00469 22.6893 3.43646 23.2074 3.89701 23.6967C8.49531 22.4446 11.3953 20.3506 14.0291 18.4292C14.9502 17.76 15.5547 17.3426 16.4758 16.7525C15.7418 17.4289 15.3316 17.9111 14.612 18.6451C13.4318 19.8468 12.2157 21.0918 10.7189 22.2863C9.19333 23.5096 7.5886 24.5315 5.83995 25.3806C6.33648 25.7404 6.8618 26.0643 7.40151 26.3521C8.8839 25.4022 10.2368 24.3372 11.4673 23.1426C12.9641 21.6962 14.1155 20.2354 15.2309 18.825C15.7562 18.1557 16.2239 17.5945 16.7564 16.9684C16.4182 17.5801 16.1376 18.1126 15.7993 18.753C14.907 20.4729 13.9787 22.2575 12.6115 24.1069C11.7695 25.2583 10.8125 26.3377 9.75463 27.3524C10.3159 27.5323 10.8916 27.6762 11.4817 27.7841C12.3884 26.6831 13.0648 25.6829 13.5901 24.8265C15.0366 22.423 15.9001 20.2138 16.7348 18.0838C16.886 17.6952 17.1306 17.1123 17.1306 17.1123C16.6989 19.7533 16.2527 22.6461 14.8639 25.9059C14.5688 26.5608 14.2234 27.266 13.8132 28.0072C13.878 28.0072 13.9428 28.0072 14.0075 28.0072C14.4753 28.0072 14.943 27.9856 15.3964 27.9352C15.6266 27.3883 15.8281 26.863 16.0008 26.3665C17.1666 22.7756 17.3609 19.8972 17.5192 17.1123C17.9654 19.962 18.2604 22.9052 17.7711 26.6903C17.7279 26.9638 17.6775 27.2444 17.6272 27.5323C18.0517 27.4171 18.4691 27.2876 18.8793 27.1365C18.9153 27.1221 18.9512 27.1077 18.98 27.0933C18.9872 26.9997 18.9944 26.899 19.0016 26.8055C19.1815 22.4806 18.4619 19.2783 17.6631 16.4503C17.7279 16.5582 18.354 17.5441 18.5555 17.9327C19.5773 19.9044 20.6567 22.6317 20.9949 26.1362C21.6282 25.7692 22.2399 25.3518 22.8083 24.8913C22.0528 21.4588 20.7575 19.1272 19.5197 17.2634C18.6634 16.0041 17.7639 14.8599 16.8932 13.7517C16.2095 12.881 15.4827 11.9599 14.8135 11.0244C15.5547 11.8376 16.3319 12.6363 17.1234 13.4351C18.1309 14.457 19.1743 15.5076 20.1818 16.6877C21.5778 18.35 23.0818 20.4369 24.226 23.5888C24.7153 23.0635 25.1687 22.5022 25.5788 21.9121C24.118 19.1416 22.4773 17.321 20.9805 15.8674C19.786 14.7376 18.5842 13.7589 17.4185 12.809C16.5477 12.0966 15.8425 11.5138 15.0222 10.7869C15.9649 11.413 16.7996 11.8736 17.8071 12.4564C20.779 14.1763 23.823 15.9465 26.7806 19.7893C27.054 19.1776 27.2915 18.5443 27.4858 17.8967C24.1036 14.5361 20.8366 13.0753 17.8574 11.7512C16.8212 11.2907 16.152 10.9668 15.1805 10.4631C16.1304 10.7582 16.7564 10.8805 17.7495 11.1396C19.3758 11.5641 21.0669 11.9959 22.8515 12.6939" fill="white"/>
</g>
<defs>
<clipPath id="clip0_4303_63">
<rect width="153.795" height="28" fill="white"/>
</clipPath>
</defs>
</svg>