<svg xmlns="http://www.w3.org/2000/svg" xmlns:xlink="http://www.w3.org/1999/xlink" width="2364" height="652" viewBox="0 0 2364 652">
  <defs>
    <style>
      .cls-1 {
        fill: #87878b;
      }

      .cls-1, .cls-2, .cls-3, .cls-4, .cls-5, .cls-7 {
        fill-rule: evenodd;
      }

      .cls-2 {
        fill: #646464;
      }

      .cls-3 {
        fill: url(#linear-gradient);
      }

      .cls-4 {
        fill: #9d4e25;
      }

      .cls-5 {
        fill: none;
        stroke-width: 8px;
        stroke: url(#linear-gradient-2);
      }

      .cls-6 {
        font-size: 59.272px;
        font-family: "Nexa Book";
        text-transform: uppercase;
      }

      .cls-6, .cls-7 {
        fill: #fffaf3;
      }
    </style>
    <linearGradient id="linear-gradient" x1="286.5" y1="638.594" x2="286.5" y2="12.406" gradientUnits="userSpaceOnUse">
      <stop offset="0" stop-color="#d71f00"/>
      <stop offset="1" stop-color="#ffc752"/>
    </linearGradient>
    <linearGradient id="linear-gradient-2" x1="286.5" y1="638.594" x2="286.5" y2="12.406" gradientUnits="userSpaceOnUse">
      <stop offset="0" stop-color="#e49341"/>
      <stop offset="1" stop-color="#dc853a"/>
    </linearGradient>
  </defs>
  <path class="cls-1" d="M313.668,181.286c-0.027.722-12.541,17.392-12.541,36.785s6.758,30.271,15.049,36.785c5.963,4.684,126.18,70.977,129.584,72.734s41.918,24.045,41.8,66.882c-0.111,40.609-22.822,60.219-41.8,71.062s-158.009,89.455-158.009,89.455l-16.72-10.868L270.2,372.735l29.26,19.229,1.672,121.224,134.6-76.915s20.757-11.712,20.9-40.965c0.117-23.978-18.392-36.785-18.392-36.785L304.472,283.281s-44.642-25.7-33.441-72.735C282.6,161.986,313.9,174.91,313.668,181.286ZM444,289L342.929,232.283s-11.839-5.846-6.688-18.392,18.392-8.361,18.392-8.361L444,255v34Z"/>
  <path id="Shape_2_copy" data-name="Shape 2 copy" class="cls-2" d="M301,212s1.463-13.145,8-23c-25.227,13.707-33.815,19.08-38,21-1.541,6.469-1.683,18.732-1.683,18.732Zm142,77,15,8V264l-14.926-9.266Z"/>
  <path class="cls-3" d="M287.751,12.408L561.968,167.073v317.69L287.751,638.592,11.862,483.091,11.026,167.073ZM44.468,185.466L287.751,49.193,528.527,185.466,529.363,464.7,287.751,600.971,44.468,465.534V185.466Zm41.8,23.408v105.34l65.21-36.785-0.836,199.81,96.143,54.341V223.087l78.586-43.474s17.792-13.314,41.8-3.344c38.4,20.766,90.291,49.326,90.291,49.326v71.873l30.1,15.884V208.038L383.894,150.353s-36.126-18.965-66.882-1.673c-33.956,19.092-101.159,57.686-101.159,57.686V479.747L182.412,462.19V225.6l-64.374,35.949V224.759L317.012,111.9l-30.1-16.72ZM269.359,300v35.113L378.878,396.98,300,441v35l119.007-68.151s5.016-3.089,5.016-11.7a14.969,14.969,0,0,0-6.688-12.54Z"/>
  <path id="Shape_1_copy_2" data-name="Shape 1 copy 2" class="cls-4" d="M314,467l-14,9V440l14-7v34Z"/>
  <path id="Shape_1_copy" data-name="Shape 1 copy" class="cls-5" d="M287.751,12.408L561.968,167.073v317.69L287.751,638.592,11.862,483.091,11.026,167.073ZM44.468,185.466L287.751,49.193,528.527,185.466,529.363,464.7,287.751,600.971,44.468,465.534V185.466Z"/>
  <text id="Strategic" class="cls-6" transform="translate(623.016 547.78) scale(1.181)">Strategic</text>
  <text id="Technology" class="cls-6" transform="translate(1078.017 547.78) scale(1.181)">Technology</text>
  <text id="Partner" class="cls-6" transform="translate(1637.016 547.78) scale(1.181)">Partner</text>
  <path id="Techsopi_copy" data-name="Techsopi copy" class="cls-7" d="M740.626,447.78h64.956V162.368H914.826V103.317H631.382v59.051H740.626V447.78Zm522-59.814c-12.55,12.549-28.86,17.15-45.17,17.15-31.79,0-58.56-20.914-58.56-60.232,0-35.972,25.09-61.069,59.39-61.069a62.64,62.64,0,0,1,41.41,16.313l32.21-33.881c-22.59-22.168-45.17-30.534-74.45-30.534-59.82,0-109.59,35.972-109.59,109.171s49.77,109.17,109.59,109.17c30.53,0,55.63-9.2,79.47-32.626Zm69.01-232.98V447.78h51.03V342.374c0-30.953,20.92-56.467,51.03-56.467,27.19,0,46.85,15.894,46.85,53.539V447.78h51.03V339.028c0-60.65-25.93-100.387-84.49-100.387-23.43,0-46.01,7.111-64.42,30.953V154.986h-51.03ZM1741.97,262.9c-23.84-20.914-48.1-27.188-80.31-27.188-37.65,0-87,16.731-87,64.415,0,46.847,46.43,61.068,85.33,64,29.28,1.673,40.99,9.621,40.99,23.842,0,15.058-17.99,23-37.23,22.587-23-.418-51.45-8.365-71.11-28.861l-25.09,36.39c30.11,31.371,62.74,36.809,95.36,36.809,58.98,0,88.68-31.371,88.68-67.761,0-54.8-49.36-63.579-88.26-66.088-26.35-1.673-38.48-9.2-38.48-22.587,0-12.967,13.39-20.5,37.65-20.5,19.66,0,36.39,4.6,51.03,18.4Zm143.88-25.515c-65.67,0-106.66,48.521-106.66,107.5,0,59.395,40.16,107.5,107.08,107.5s107.5-48.1,107.5-107.5C1993.77,285.907,1951.52,237.386,1885.85,237.386Zm0.42,46.429c34.3,0,56.05,30.116,56.05,61.069,0,31.37-18.82,60.65-56.05,60.65s-56.05-29.28-56.05-60.65C1830.22,313.931,1849.46,283.815,1886.27,283.815Zm264.35,119.627c-34.72,0-58.56-26.351-58.56-58.558s21.75-58.559,58.56-58.559,58.56,26.351,58.56,58.559S2185.34,403.442,2150.62,403.442ZM2087.46,551.31V423.52c14.64,22.587,46.85,29.279,68.6,29.279,66.08,0,104.15-47.683,104.15-107.915,0-60.651-42.25-107.916-105.83-107.916-23.42,0-51.03,10.039-66.92,33.044l-3.35-28.443h-47.68V551.31h51.03ZM2353.9,240.733V447.78h-51.03V240.733h51.03Zm-55.63-57.3c0-39.2,60.23-39.2,60.23,0S2298.27,222.625,2298.27,183.429ZM1079.53,332.2c-16.24-83.72-69.58-112.549-135.816-93.144-64.224,18.817-92.466,74.165-74.824,134.375,18.582,63.422,71.472,93.691,139.71,73.7,30.11-8.821,61.17-29.254,75.69-57.046l-40.37-21.734c-7.82,14.934-29.51,28.7-47.571,33.989-34.521,10.114-60.97-1.315-71.355-24.859Zm-165.612,4.5c-0.3-27.807,17.611-47,44.1-54.765,28.1-8.232,51.929-1.268,62.669,23.481Z"/>
</svg>
